<?xml version="1.0" encoding="utf-8"?>
<!-- Generator: Adobe Illustrator 16.0.0, SVG Export Plug-In . SVG Version: 6.00 Build 0)  -->
<!DOCTYPE svg PUBLIC "-//W3C//DTD SVG 1.1//EN" "http://www.w3.org/Graphics/SVG/1.1/DTD/svg11.dtd">
<svg version="1.1" id="Layer_1" xmlns="http://www.w3.org/2000/svg" xmlns:xlink="http://www.w3.org/1999/xlink" x="0px" y="0px"
	 width="690.123px" height="841.975px" viewBox="0 0 690.123 841.975" enable-background="new 0 0 690.123 841.975"
	 xml:space="preserve">
<g>
	<polygon fill="#2E2E2E" points="208.189,729.458 238.488,729.458 223.488,690.61 	"/>
	<polygon fill="#2E2E2E" points="193.728,766.458 252.818,766.458 246.287,749.458 200.389,749.458 	"/>
	<polygon fill="#2E2E2E" points="393.676,766.458 452.766,766.458 446.234,749.458 400.336,749.458 	"/>
	<path fill="#2E2E2E" d="M145.187,701.734c0-10.95-6.75-16.275-18.449-16.275h-18.121v33h18.121
		C138.437,718.458,145.187,712.833,145.187,701.734z"/>
	<path fill="#2E2E2E" d="M247.617,626.458v-141h334v-140h-334v-139h370v-140h-548v700h13v-102h45.47
		c26.849,0,42.298,12.977,42.298,36.375c0,24.6-15.449,38.625-42.298,38.625h-19.47v27h57.752l44.22-102h27.449l43.194,102h10.385
		v-102h27v82h45v20h2.699l44.219-102h27.449l43.194,102h28.098c-9.63-2.917-18.569-7.565-25.69-13.399l10.35-20.549
		c10.801,9.449,27,15.749,37.949,15.749c8.4,0,13.648-3.149,13.648-9.149c0-18.6-55.496-7.5-55.496-44.698
		c0-19.35,16.648-31.648,41.848-31.648c15.148,0,30.598,4.649,41.398,11.699l-10.051,20.849
		c-11.1-6.449-25.049-10.949-33.598-10.949c-6.9,0-11.549,2.55-11.549,7.649c0,18.149,55.496,7.8,55.496,45.749
		c0,14.256-8.576,23.942-21.402,28.698h36.438v-102h26v102h14v-140H247.617z"/>
	<polygon fill="#2E2E2E" points="408.137,729.458 438.436,729.458 423.436,690.61 	"/>
</g>
</svg>
