<?xml version="1.0" encoding="utf-8"?>
<!-- Generator: Adobe Illustrator 16.0.0, SVG Export Plug-In . SVG Version: 6.00 Build 0)  -->
<!DOCTYPE svg PUBLIC "-//W3C//DTD SVG 1.1//EN" "http://www.w3.org/Graphics/SVG/1.1/DTD/svg11.dtd">
<svg version="1.1" id="Layer_1" xmlns="http://www.w3.org/2000/svg" xmlns:xlink="http://www.w3.org/1999/xlink" x="0px" y="0px"
	 width="282.706px" height="292.222px" viewBox="0 0 282.706 292.222" enable-background="new 0 0 282.706 292.222"
	 xml:space="preserve">
<g>
	<path fill="#333333" d="M59.398,38.445l-1,2.2l-1.2,2.4c-0.535,1.069-0.869,1.869-1,2.4l-1.2,2.4l-4,9.6
		c-1.331,3.334-2.565,6.634-3.7,9.9c-1.131,3.269-2.231,6.569-3.3,9.9c-0.531,1.6-1,3.234-1.4,4.9c-0.4,1.668-0.8,3.3-1.2,4.9
		l-0.8,4.8c0,0.4-0.031,0.8-0.1,1.2c-0.065,0.4-0.1,0.8-0.1,1.2v1c0.269-0.131,0.669-0.465,1.2-1l3.4-3.6l3.4-3.8
		c2.269-2.8,4.4-5.531,6.4-8.2c1.066-1.466,2.1-2.866,3.1-4.2c1-1.331,2.031-2.731,3.1-4.2l6-8.6c1.065-1.466,2.031-2.932,2.9-4.4
		c0.866-1.465,1.832-2.931,2.9-4.4c1.866-3.065,3.731-6.065,5.6-9c1.866-2.931,3.731-5.931,5.6-9c1.731-2.8,3.431-5.6,5.1-8.4
		c1.666-2.8,3.3-5.666,4.9-8.6l0.2-0.6l0.4-0.6c0.4-0.8,1.065-1.332,2-1.6c0.931-0.266,1.8-0.131,2.6,0.4c1.465,0.935,2,2.269,1.6,4
		v0.2l-32.6,101.8l1.8-2.8c3.065-4.935,6.2-9.8,9.4-14.6c3.2-4.8,6.531-9.531,10-14.2c1.6-2.4,3.266-4.766,5-7.1
		c1.731-2.331,3.466-4.631,5.2-6.9l10.2-13.8c3.332-4.666,6.6-9.332,9.8-14c3.2-4.666,6.131-9.466,8.8-14.4
		c0.666-1.066,1.531-1.731,2.6-2c1.065-0.266,2.065-0.131,3,0.4c1.065,0.668,1.766,1.5,2.1,2.5c0.331,1,0.231,2.034-0.3,3.1
		c-1.469,2.668-2.934,5.234-4.4,7.7c-1.469,2.469-2.934,4.969-4.4,7.5l-9.6,14.6l-9.8,14l-9.6,14.2c-3.2,4.8-6.3,9.6-9.3,14.4
		c-3,4.8-5.969,9.666-8.9,14.6c-2.8,4.931-5.534,9.9-8.2,14.9c-2.669,5-5.2,10.031-7.6,15.1c-9.869,20.266-18.666,41.2-26.4,62.8
		l-0.4,1.4l-19.8,61.399l-0.6,2.2l-0.2,0.4v0.199c-0.8,2.266-2.266,3.9-4.4,4.9c-2.131,1-4.332,1.1-6.6,0.3
		c-2.131-0.8-3.7-2.234-4.7-4.3c-1-2.068-1.166-4.169-0.5-6.3c7.069-22.135,14.8-43.935,23.2-65.4c0.668-1.6,1.3-3.2,1.9-4.8
		s1.234-3.2,1.9-4.8l56-155.4l-5.6,8.8l-5.8,8.8c-0.534,0.8-1.034,1.569-1.5,2.3c-0.469,0.734-0.9,1.5-1.3,2.3l-3,4.4l-6,8.8
		l-3.2,4.2c-1.069,1.6-2.134,3.069-3.2,4.4c-0.534,0.669-1.068,1.369-1.6,2.1c-0.535,0.734-1.135,1.435-1.8,2.1l-3.8,4.2l-2.2,2
		l-1.6,1c-0.266,0.269-0.531,0.434-0.8,0.5c-0.266,0.068-0.6,0.234-1,0.5h-0.4c-0.131,0-0.2,0.034-0.2,0.1
		c0,0.069-0.065,0.1-0.2,0.1h-2.6c-0.4-0.131-0.766-0.266-1.1-0.4c-0.331-0.131-0.631-0.266-0.9-0.4c-0.266-0.266-0.5-0.466-0.7-0.6
		c-0.2-0.131-0.366-0.331-0.5-0.6c-0.666-0.8-1.131-1.6-1.4-2.4c-0.266-1.065-0.4-1.731-0.4-2c-0.131-0.666-0.231-1.231-0.3-1.7
		c-0.065-0.465-0.1-0.965-0.1-1.5v-3l0.6-5.6l1.8-10.8c1.334-6.931,2.934-13.931,4.8-21l3.6-15.6l1.4-5.4
		c0.535-2.266,1.734-4,3.6-5.2c1.869-1.2,3.931-1.466,6.2-0.8c2.131,0.535,3.8,1.734,5,3.6c1.2,1.869,1.531,3.869,1,6
		C59.929,37.245,59.664,37.914,59.398,38.445z"/>
	<path fill="#333333" d="M138.397,37.045c0,2.269,0.2,4.6,0.6,7c0.266,2.269,0.731,4.6,1.4,7c0.666,2.4,1.331,4.8,2,7.2
		c0.8,2.4,1.666,4.8,2.6,7.2c0.931,2.4,1.931,4.734,3,7l0.8,1.8l0.4,0.8c2.266-3.066,4.432-6.131,6.5-9.2
		c2.066-3.065,4.166-6.131,6.3-9.2c4.932-7.332,9.731-14.932,14.4-22.8c0.666-1.065,1.565-1.766,2.7-2.1
		c1.131-0.331,2.231-0.166,3.3,0.5c1.065,0.669,1.766,1.569,2.1,2.7c0.332,1.134,0.166,2.234-0.5,3.3h-0.199
		c-4.535,7.734-9.4,15.469-14.601,23.2c-2.669,3.869-5.3,7.634-7.899,11.3c-2.601,3.669-5.235,7.369-7.9,11.1
		c-0.269,0.269-0.534,0.669-0.8,1.2c0.131,0.8,0.231,1.634,0.3,2.5c0.065,0.869,0.1,1.7,0.1,2.5c0.266,3.334-0.134,6.534-1.2,9.6
		c-0.8,2.8-2.069,5.666-3.8,8.6c-0.669,1.332-1.469,2.6-2.4,3.8c-0.935,1.2-1.869,2.331-2.8,3.4c-1.869,2-4,4-6.4,6
		c-1.069,0.931-2.2,1.8-3.4,2.6c-1.2,0.8-2.332,1.6-3.4,2.4l-3.6,2.2l-2,1c-0.266,0.266-0.6,0.4-1,0.4l-0.4,0.4l-0.6,0.2
		c-1.066,0.531-2.131,0.631-3.2,0.3c-1.065-0.334-1.866-1.034-2.4-2.1c-0.666-1.2-0.731-2.4-0.2-3.6
		c1.069-2.269,2.135-4.434,3.2-6.5c1.069-2.068,2.2-4.1,3.4-6.1c1.2-2,2.435-3.969,3.7-5.9c1.269-1.934,2.569-3.831,3.9-5.7
		c1.6-2.4,3.266-4.8,5-7.2c1.731-2.4,3.466-4.8,5.2-7.2l-0.6-2l-1.4-3l-2-3.6c-1.334-2.4-2.569-4.832-3.7-7.3
		c-1.131-2.465-2.231-5.031-3.3-7.7c-1.066-2.666-2.031-5.332-2.9-8c-0.865-2.666-1.631-5.466-2.3-8.4
		c-0.266-1.466-0.531-2.932-0.8-4.4c-0.266-1.465-0.466-2.931-0.6-4.4c-0.131-1.6-0.166-3.2-0.1-4.8c0.069-1.6,0.234-3.266,0.5-5
		c0.269-2,0.734-3.8,1.4-5.4c0.269-0.531,0.5-1.031,0.7-1.5c0.2-0.466,0.434-0.966,0.7-1.5c0.269-0.531,0.569-1.031,0.9-1.5
		c0.334-0.466,0.7-0.9,1.1-1.3c0.8-0.931,1.869-1.866,3.2-2.8c1.065-0.931,2.6-1.6,4.6-2c1.465-0.4,3.2-0.466,5.2-0.2
		c1.6,0.134,3.131,0.669,4.6,1.6l2.2,1.6c1.465,1.069,2.366,2.534,2.7,4.4c0.332,1.869-0.034,3.534-1.1,5
		c-0.269,0.269-0.435,0.469-0.5,0.6c-0.069,0.134-0.234,0.269-0.5,0.4l-10.2,9.6V37.045z"/>
	<path fill="#333333" d="M186.396,37.045c0,2.269,0.2,4.6,0.6,7c0.266,2.269,0.731,4.6,1.4,7c0.666,2.4,1.331,4.8,2,7.2
		c0.8,2.4,1.666,4.8,2.6,7.2c0.932,2.4,1.932,4.734,3,7l0.801,1.8l0.399,0.8c2.266-3.066,4.432-6.131,6.5-9.2
		c2.065-3.065,4.166-6.131,6.3-9.2c4.932-7.332,9.731-14.932,14.4-22.8c0.666-1.065,1.565-1.766,2.7-2.1
		c1.131-0.331,2.231-0.166,3.3,0.5c1.065,0.669,1.766,1.569,2.1,2.7c0.332,1.134,0.166,2.234-0.5,3.3h-0.199
		c-4.535,7.734-9.4,15.469-14.601,23.2c-2.669,3.869-5.3,7.634-7.899,11.3c-2.601,3.669-5.234,7.369-7.9,11.1
		c-0.269,0.269-0.534,0.669-0.8,1.2c0.131,0.8,0.231,1.634,0.3,2.5c0.065,0.869,0.1,1.7,0.1,2.5c0.266,3.334-0.134,6.534-1.199,9.6
		c-0.801,2.8-2.069,5.666-3.801,8.6c-0.668,1.332-1.469,2.6-2.399,3.8c-0.935,1.2-1.869,2.331-2.8,3.4c-1.869,2-4,4-6.4,6
		c-1.068,0.931-2.2,1.8-3.4,2.6c-1.199,0.8-2.331,1.6-3.399,2.4l-3.601,2.2l-2,1c-0.266,0.266-0.6,0.4-1,0.4l-0.399,0.4l-0.601,0.2
		c-1.065,0.531-2.131,0.631-3.199,0.3c-1.066-0.334-1.866-1.034-2.4-2.1c-0.666-1.2-0.731-2.4-0.2-3.6
		c1.069-2.269,2.135-4.434,3.2-6.5c1.068-2.068,2.2-4.1,3.4-6.1c1.199-2,2.434-3.969,3.699-5.9c1.27-1.934,2.569-3.831,3.9-5.7
		c1.6-2.4,3.266-4.8,5-7.2c1.731-2.4,3.466-4.8,5.2-7.2l-0.601-2l-1.399-3l-2-3.6c-1.335-2.4-2.569-4.832-3.7-7.3
		c-1.131-2.465-2.231-5.031-3.3-7.7c-1.065-2.666-2.031-5.332-2.9-8c-0.865-2.666-1.631-5.466-2.3-8.4
		c-0.266-1.466-0.531-2.932-0.8-4.4c-0.266-1.465-0.466-2.931-0.601-4.4c-0.131-1.6-0.165-3.2-0.1-4.8c0.068-1.6,0.234-3.266,0.5-5
		c0.269-2,0.734-3.8,1.4-5.4c0.269-0.531,0.5-1.031,0.699-1.5c0.2-0.466,0.435-0.966,0.7-1.5c0.269-0.531,0.569-1.031,0.9-1.5
		c0.334-0.466,0.7-0.9,1.1-1.3c0.8-0.931,1.869-1.866,3.2-2.8c1.065-0.931,2.6-1.6,4.6-2c1.466-0.4,3.2-0.466,5.2-0.2
		c1.601,0.134,3.132,0.669,4.601,1.6l2.199,1.6c1.466,1.069,2.366,2.534,2.7,4.4c0.331,1.869-0.034,3.534-1.1,5
		c-0.269,0.269-0.435,0.469-0.5,0.6c-0.069,0.134-0.234,0.269-0.5,0.4l-10.2,9.6V37.045z"/>
	<path fill="#333333" d="M253.394,22.245h-0.6c-0.135,0.135-0.27,0.2-0.4,0.2l-0.8,0.4c-0.8,0.269-1.4,0.535-1.8,0.8
		c-1.335,0.668-2.469,1.469-3.4,2.4c-1.2,0.8-2.4,1.8-3.6,3c-0.669,0.534-1.234,1.069-1.7,1.6c-0.469,0.534-1.034,1.134-1.7,1.8
		l-3,3.8c-0.669,0.669-1.2,1.369-1.6,2.1c-0.4,0.734-0.869,1.435-1.4,2.1c-0.534,0.669-1.034,1.369-1.5,2.1
		c-0.469,0.734-0.9,1.434-1.3,2.1c-0.935,1.2-1.8,2.668-2.601,4.4c-3.331,5.6-6.331,11.734-9,18.4c-0.665,1.6-1.266,3.234-1.8,4.9
		c-0.531,1.669-1.131,3.3-1.8,4.9c-0.531,1.6-1,3.234-1.4,4.9c-0.399,1.668-0.8,3.3-1.199,4.9l-0.801,5
		c-0.131,0.8-0.199,1.6-0.199,2.4s0,1.6,0,2.4v2.2l0.399,1.8l0.2,0.4l0.2,0.2l0.2-0.2c0.134,0,0.269-0.065,0.399-0.2l1.601-0.8
		l1.399-1.6l1.601-1.8l1.6-2l1.4-2c0.399-0.666,0.834-1.366,1.3-2.1c0.469-0.731,0.899-1.5,1.3-2.3c1.6-2.8,3.135-5.866,4.6-9.2
		c0.666-1.465,1.332-3,2-4.6c0.666-1.6,1.332-3.266,2-5c0.266-0.8,0.566-1.6,0.9-2.4c0.331-0.8,0.631-1.6,0.9-2.4l1-2.6
		c0.266-1.065,0.531-1.865,0.8-2.4l0.8-2.6l0.2-1.2l0.399-1.2l0.801-2.6v-0.6c0-0.131,0.031-0.231,0.1-0.3
		c0.065-0.065,0.1-0.166,0.1-0.3l0.2-0.6c0-0.266,0.065-0.466,0.2-0.6l0.4-1c0.931-1.866,2.3-3.131,4.1-3.8
		c1.8-0.666,3.631-0.531,5.5,0.4c1.6,0.669,2.766,1.769,3.5,3.3c0.731,1.535,0.966,3.035,0.7,4.5l-0.8,4.8
		c-0.27,0.8-0.435,1.6-0.5,2.4c-0.069,0.8-0.169,1.6-0.301,2.4c-0.668,3.2-1.068,6.4-1.199,9.6c0,0.134-0.035,0.234-0.101,0.3
		c-0.068,0.069-0.1,0.169-0.1,0.3l7.399-12.4c1.466-2.4,2.9-4.766,4.301-7.1c1.399-2.332,2.831-4.631,4.3-6.9
		c1.466-2.4,2.931-4.766,4.399-7.1c1.466-2.332,2.932-4.631,4.4-6.9c0.666-1.066,1.6-1.731,2.8-2c1.2-0.266,2.331-0.066,3.4,0.6
		c1.065,0.669,1.731,1.6,2,2.8c0.266,1.2,0.065,2.334-0.601,3.4l-8.6,14l-8.4,14c-1.469,2.269-2.834,4.6-4.1,7
		c-1.269,2.4-2.568,4.8-3.9,7.2l-3.8,7c-1.469,2.4-2.669,4.8-3.6,7.2c-0.534,1.2-1.435,2.069-2.7,2.6
		c-1.269,0.534-2.5,0.469-3.7-0.2c-0.669-0.131-1.269-0.6-1.8-1.4c-0.269-0.266-0.534-0.666-0.8-1.2c-0.269-0.266-0.4-0.466-0.4-0.6
		c0-0.131-0.068-0.332-0.2-0.6l-0.6-1.6l-0.8-3l-0.601-5.6c-0.134-0.266-0.199-0.731-0.199-1.4l-1.601,2.6
		c-1.068,1.6-2.034,3.2-2.899,4.8c-0.869,1.6-1.835,3.135-2.9,4.6l-3,4.6l-1.8,2.2c-0.266,0.4-0.531,0.8-0.8,1.2
		c-0.266,0.4-0.601,0.734-1,1c-1.066,1.469-2.466,2.931-4.2,4.4c-0.8,0.666-1.8,1.266-3,1.8c-0.531,0.266-1.2,0.531-2,0.8
		c-0.132,0-0.266,0.066-0.4,0.2h-1.8c-0.4,0-0.831,0-1.3,0c-0.466,0-0.9-0.134-1.3-0.4c-1.066-0.4-1.866-0.869-2.4-1.4
		c-0.4-0.269-0.7-0.6-0.9-1c-0.199-0.4-0.431-0.734-0.699-1l-1-1.8c-0.266-0.666-0.432-1.266-0.5-1.8
		c-0.066-0.531-0.166-1.066-0.301-1.6c0-0.531-0.031-1.031-0.1-1.5c-0.065-0.466-0.1-0.966-0.1-1.5c0-1.066,0-2.066,0-3
		c0-0.931,0.068-1.931,0.199-3c0.135-0.931,0.234-1.832,0.301-2.7c0.068-0.866,0.234-1.766,0.5-2.7
		c0.134-0.932,0.269-1.832,0.399-2.7c0.135-0.866,0.335-1.766,0.601-2.7c0.269-0.931,0.5-1.831,0.699-2.7
		c0.2-0.866,0.435-1.766,0.7-2.7c0.269-0.931,0.5-1.831,0.7-2.7c0.2-0.866,0.435-1.7,0.7-2.5c0.269-0.932,0.534-1.832,0.8-2.7
		c0.269-0.866,0.534-1.7,0.8-2.5l3.601-10.4c0.668-1.731,1.368-3.431,2.1-5.1c0.734-1.666,1.5-3.3,2.3-4.9
		c0.269-0.931,0.601-1.8,1-2.6c0.4-0.8,0.8-1.6,1.2-2.4c0.4-0.931,0.834-1.8,1.3-2.6c0.469-0.8,0.9-1.6,1.3-2.4
		c0.4-0.8,0.835-1.6,1.301-2.4c0.469-0.8,0.969-1.6,1.5-2.4l3-4.8c0.531-0.8,1.065-1.6,1.6-2.4c0.531-0.8,1.131-1.6,1.8-2.4
		c0.666-0.8,1.3-1.6,1.9-2.4c0.6-0.8,1.231-1.531,1.899-2.2c0.666-0.8,1.4-1.566,2.2-2.3c0.8-0.731,1.601-1.431,2.4-2.1
		c0.399-0.4,0.831-0.766,1.3-1.1c0.466-0.332,0.9-0.631,1.3-0.9c0.266-0.266,0.531-0.466,0.8-0.6c0.266-0.131,0.531-0.266,0.801-0.4
		c0.266-0.266,0.531-0.4,0.8-0.4l0.6-0.6c2-1.2,4.166-1.5,6.5-0.9c2.331,0.6,4.101,1.9,5.3,3.9c1.2,2,1.5,4.168,0.9,6.5
		c-0.6,2.334-1.9,4.1-3.9,5.3L253.394,22.245z"/>
</g>
</svg>
