<?xml version="1.0" encoding="utf-8"?>
<!-- Generator: Adobe Illustrator 16.0.0, SVG Export Plug-In . SVG Version: 6.00 Build 0)  -->
<!DOCTYPE svg PUBLIC "-//W3C//DTD SVG 1.1//EN" "http://www.w3.org/Graphics/SVG/1.1/DTD/svg11.dtd">
<svg version="1.1" id="Layer_1" xmlns="http://www.w3.org/2000/svg" xmlns:xlink="http://www.w3.org/1999/xlink" x="0px" y="0px"
	 width="423.221px" height="415.352px" viewBox="0 1.312 423.221 415.352" enable-background="new 0 1.312 423.221 415.352"
	 xml:space="preserve">
<g>
	<g>
		<path fill="#333333" d="M248.874,86.275c28.915,0,52.537,23.621,52.537,52.537c0,28.101-23.622,52.129-52.537,52.129H121.81
			V86.275H248.874z M136.471,100.937v75.344h112.403c20.771,0,37.875-17.104,37.875-37.468c0-20.77-17.104-37.876-37.875-37.876
			H136.471z"/>
	</g>
	<g>
		<path fill="#333333" d="M300.19,335.068H121.81V230.402h121.362v14.66H136.471v75.344H300.19V335.068L300.19,335.068z"/>
	</g>
</g>
<g>
	<path d="M77.342,338.491c4.565,4.394,5.014,9.172,1.219,13.114c-3.944,4.099-8.861,3.964-13.426-0.431l-4.176-4.02l-5.268,5.474
		l-3.061-2.945l17.474-18.157L77.342,338.491z M63.605,344.407l4.046,3.895c2.802,2.695,5.532,3.025,7.904,0.562
		c2.297-2.387,1.813-5.05-0.989-7.746l-4.047-3.896L63.605,344.407z"/>
	<path d="M113.555,388.045l-4.626,4.094l-3.996-1.905l20.89-17.95l3.931,1.876l-0.911,27.483l-4.093-1.952l0.272-6.173
		L113.555,388.045z M125.722,377.26l-9.109,8.058l8.576,4.093L125.722,377.26z"/>
	<path d="M192.868,412.843l-0.486,3.821l-15.032-1.915l3.183-24.993l4.214,0.536l-2.697,21.174L192.868,412.843z"/>
	<path d="M245.769,409.013l-1.302,6.039l-4.349,0.831l6.193-26.837l4.276-0.818l15.552,22.682l-4.455,0.852l-3.438-5.134
		L245.769,409.013z M249.178,393.115l-2.563,11.888l9.334-1.784L249.178,393.115z"/>
	<path d="M316.681,364.512l0.311,4.127c-3.196-0.094-5.914,0.658-7.574,1.6c-2.162,1.223-3.109,2.836-2.277,4.308
		c2.713,4.793,13.102-4.478,17.537,3.436c2.217,3.915,0.137,8.277-4.688,11.009c-3.446,1.95-7.502,2.384-10.928,1.594l-0.211-4.1
		c3.426,0.791,6.883,0.321,9.232-1.008c2.568-1.453,3.554-3.294,2.598-4.985c-2.768-4.887-13.066,4.541-17.479-3.259
		c-2.128-3.761-0.231-7.937,4.53-10.631C310.58,364.986,313.883,364.317,316.681,364.512z"/>
	<path d="M367.595,352.514l-18.029-17.611l2.97-3.04l18.03,17.612L367.595,352.514z"/>
</g>
<g>
	<path d="M63.766,60.205l4.415,5.177l9.367-7.99l2.476,2.903l-9.367,7.99l4.509,5.286l10.792-9.205l2.477,2.903L74.41,79.23
		L58.057,60.058l13.695-11.681l2.476,2.903L63.766,60.205z"/>
	<path d="M134.113,36.655l1.605,3.502l-13.779,6.315l-10.5-22.911l3.862-1.77l8.895,19.409L134.113,36.655z"/>
	<path d="M182.691,27.636l-4.163,0.646l-1.262-8.148L165.385,4.81l4.234-0.655l8.995,11.032l5.096-13.214l4.271-0.661l-6.572,18.033
		L182.691,27.636z"/>
	<path d="M249.274,5.766l-2.221,3.492c-2.506-1.987-5.134-3.01-7.025-3.25c-2.463-0.313-4.188,0.412-4.4,2.09
		c-0.693,5.463,13.176,4.248,11.997,13.241c-0.565,4.463-4.843,6.714-10.342,6.016c-3.929-0.499-7.438-2.577-9.709-5.259
		l2.282-3.411c2.271,2.683,5.322,4.376,8,4.716c2.929,0.372,4.818-0.513,5.062-2.441c0.707-5.57-13.184-4.177-12.057-13.067
		c0.545-4.285,4.562-6.496,9.99-5.807C244.103,2.497,247.147,3.936,249.274,5.766z"/>
	<path d="M309.228,24.881l-3.106,2.734c-1.853-2.607-4.091-4.323-5.843-5.082c-2.278-0.988-4.137-0.773-4.811,0.78
		c-2.189,5.055,11.471,7.756,7.831,16.066c-1.789,4.129-6.524,5.099-11.612,2.895c-3.634-1.574-6.426-4.549-7.858-7.76l3.146-2.64
		c1.434,3.211,3.891,5.688,6.368,6.762c2.709,1.174,4.771,0.851,5.545-0.933c2.232-5.153-11.5-7.689-7.937-15.916
		c1.718-3.964,6.193-4.968,11.215-2.792C305.171,20.298,307.694,22.53,309.228,24.881z"/>
	<path d="M340.002,64.314l-5.506,2.802l-3.39-2.849l24.729-12.133l3.334,2.803l-7.781,26.378l-3.472-2.918l1.813-5.906
		L340.002,64.314z M354.487,56.927l-10.842,5.513l7.275,6.115L354.487,56.927z"/>
</g>
<circle cx="10" cy="212.201" r="10"/>
<circle cx="413.221" cy="212.201" r="10"/>
</svg>
